<svg width="333" height="400" viewBox="0 0 333 400" fill="none" xmlns="http://www.w3.org/2000/svg">
<mask id="mask0_2357_522" style="mask-type:alpha" maskUnits="userSpaceOnUse" x="0" y="112" width="333" height="288">
<path d="M39.1437 112.589C37.5141 112.953 36.1434 114.017 35.3574 115.445C33.3539 118.685 22.6371 138.202 37.3224 164.601C37.4854 167.218 37.3128 175.279 30.6987 184.923C26.7781 189.188 -25.0423 246.367 15.2657 251.476C25.4936 257.554 23.9408 261.359 22.4645 265.002C19.5505 272.162 16.7515 279.045 28.446 287.174C26.3372 292.935 24.8993 302.271 33.4019 309.441C34.092 310.659 36.1626 315.758 32.75 329.322C32.7021 329.504 32.6638 329.686 32.635 329.878C31.8969 333.693 27.5641 362.316 65.6386 352.634C66.1467 352.5 66.6259 352.309 67.0669 352.059C70.9203 350.209 110.375 332.188 109.33 367.128V367.291H109.311V394.16C109.311 397.342 111.88 399.911 115.063 399.911H284.404C285.65 399.911 286.101 399.93 286.455 399.95C289.542 400.084 291.056 400.141 293.05 397.534C295.034 394.936 294.584 393.508 293.702 390.699C293.549 390.23 293.357 389.607 293.108 388.629L293.05 388.408C290.769 379.35 285.794 356.938 284.922 330.635C284.068 304.514 287.222 274.52 301.083 250.115C305.742 244.824 344.823 197.585 328.489 117.075C328.038 114.784 326.274 113.097 324.137 112.608C324.213 114.468 324.252 116.327 324.252 118.197C324.252 156.137 309.298 192.217 282.477 219.038C255.656 245.859 219.576 260.803 181.645 260.803C143.705 260.803 107.624 245.859 80.8033 219.038C53.9824 192.217 39.0383 156.137 39.0383 118.197C39.0383 116.318 39.0766 114.448 39.1437 112.589Z" fill="url(#paint0_linear_2357_522)"/>
</mask>
<g mask="url(#mask0_2357_522)">
<ellipse cx="66.5489" cy="203.732" rx="99.6915" ry="99.6915" fill="#59017C"/>
<ellipse cx="66.0489" cy="112.202" rx="99.6915" ry="99.6915" fill="#A0016A"/>
<ellipse cx="100.096" cy="356.145" rx="99.6915" ry="99.6915" fill="#012A75"/>
<ellipse cx="151.4" cy="262.526" rx="74.8292" ry="74.8291" fill="#004D8D"/>
<ellipse cx="250.515" cy="376.716" rx="99.6915" ry="99.6915" fill="#00B746"/>
<ellipse cx="302.72" cy="420.8" rx="99.6915" ry="99.6915" fill="#006736"/>
<ellipse cx="240.527" cy="185.995" rx="139.472" ry="139.472" fill="#C9E501"/>
<ellipse cx="333.215" cy="143.865" rx="139.472" ry="139.472" fill="#FCE701"/>
</g>
<path d="M131.452 146.659C131.104 145.634 130.761 144.61 130.413 143.586C131.308 143.541 131.219 143.069 130.98 142.422C130.274 140.523 129.732 138.554 129.056 136.659C126.4 129.23 125.893 121.587 126.674 113.87C127.648 104.248 130.821 95.3725 136.301 87.3121C138.682 83.8065 141.76 82.2899 145.888 83.3291C145.868 83.7369 145.843 84.1446 145.823 84.5524C142.775 84.075 140.169 84.612 138.25 87.3618C131.81 96.5908 128.285 106.799 127.967 118.047C127.643 129.484 130.746 139.981 136.833 149.662C139.105 153.277 141.88 155.45 146.37 154.371C146.539 155.037 145.067 154.794 145.639 155.445C146.101 155.977 146.967 156.773 147.643 155.475C146.688 160.124 148.796 163.043 152.69 165.385C157.603 168.339 162.64 170.875 168.219 172.272C184.956 176.459 200.46 173.769 214.617 163.839C218.461 161.143 218.705 157.051 215.393 153.705C209.242 147.499 203.076 141.303 196.945 135.078C195.921 134.034 195.115 133.85 193.772 134.75C186.239 139.792 178.651 139.841 171.183 134.576C170.059 133.78 169.447 133.914 168.527 134.854C164.316 139.15 160.054 143.397 155.753 147.603C153.351 149.955 151.228 152.601 148.428 154.53C147.941 154.49 147.499 154.371 147.265 153.879C147.553 153.486 147.792 153.043 148.135 152.705C154.43 146.42 160.701 140.11 167.08 133.909C168.234 132.79 168.269 132.154 167.393 130.851C162.411 123.432 162.292 115.929 167.349 108.46C167.99 107.515 168.487 106.725 167.398 105.675C164.853 103.219 162.406 100.663 159.925 98.1471C155.758 93.9305 151.253 90.042 147.578 85.348C147.822 85.0795 148.07 84.8109 148.314 84.5424C150.517 86.601 152.764 88.6199 154.918 90.7332C159.438 95.1736 163.923 99.6488 168.388 104.144C169.472 105.238 170.322 105.183 171.585 104.293C178.243 99.6091 186.408 99.4947 193.141 104.059C194.956 105.288 196 105.104 197.507 103.542C203.519 97.3267 209.689 91.2702 215.791 85.1391C218.555 82.3645 218.172 78.0533 214.99 75.6417C197.999 62.763 174.201 61.5 155.45 72.0715C151.119 74.5129 145.917 76.8152 147.663 83.5728C147.18 83.2794 147.061 82.4888 146.305 82.5783C145.311 79.8534 145.922 76.7456 149.368 74.1848C168.259 60.1325 195.816 59.9088 214.99 73.7273C217.814 75.761 219.654 78.1677 219.102 81.7976C218.933 82.9264 219.261 83.1054 220.246 82.9512C223.762 82.3993 226.268 84.0551 228.172 86.785C236.377 98.54 239.838 111.434 238.236 125.819C237.302 134.218 234.636 141.87 230.44 149.06C228.028 153.193 225.323 157.19 219.445 156.047C219.132 155.987 218.65 155.922 218.819 156.673C219.311 158.866 219.142 160.984 217.849 162.934C217.551 163.381 217.765 163.893 218.267 164.197C218.133 164.455 218.003 164.714 217.869 164.972C214.418 167.459 210.923 169.88 206.999 171.581C203.051 173.286 199.212 175.325 194.832 175.777C194.861 175.459 194.886 175.146 194.916 174.828C195.284 174.793 195.652 174.753 196.02 174.718C195.965 174.619 195.931 174.445 195.861 174.435C195.463 174.36 195.11 174.425 194.946 174.868C193.529 174.614 192.156 174.952 190.834 175.335C189.625 175.688 190.883 175.847 190.983 176.106C190.287 176.573 189.496 176.409 188.735 176.439C187.756 175.26 186.418 175.802 185.265 175.832C172.893 176.15 161.551 172.943 151.143 166.23C147.832 164.097 145.311 161.715 145.878 157.379C146.002 156.42 145.619 155.992 144.625 156.121C142.437 156.415 140.448 155.649 138.439 154.953C138.409 154.336 138.255 153.958 137.613 154.53C135.823 154.033 135.808 151.89 134.381 151.054C134.356 150.666 134.267 150.318 133.874 150.129C133.809 149.95 133.74 149.776 133.675 149.597C133.61 149.155 133.272 149.09 132.919 149.04L132.929 149.05C132.76 148.056 132.77 146.947 131.447 146.664L131.452 146.659ZM170.631 107.361C168.308 109.017 167.095 111.409 166.16 114.009C163.699 120.891 166.354 129.588 172.142 133.506C179.342 138.379 188.193 137.982 194.116 132.512C202.499 124.77 201.659 111.995 192.33 105.208C185.986 100.594 175.359 101.663 170.606 107.391L170.636 107.361H170.631ZM237.252 117.281C237.451 112.98 235.949 106.133 233.433 99.5444C231.638 94.8554 229.356 90.3155 225.944 86.5314C223.553 83.8811 219.848 83.6225 217.546 85.8949C210.908 92.4387 204.349 99.0621 197.731 105.621C196.86 106.481 196.841 107.093 197.557 108.127C202.728 115.596 202.822 123.194 197.716 130.717C196.736 132.164 196.965 132.989 198.079 134.073C204.21 140.055 210.296 146.082 216.407 152.079C220.251 155.853 224.08 155.569 227.168 151.149C233.677 141.835 237.043 131.488 237.252 117.271V117.281Z" fill="#E9A060"/>
<path d="M170.601 107.397C171.779 107.616 172.361 106.641 173.127 106.084C181.202 100.212 193.633 103.474 197.407 112.683C200.237 119.589 198.825 128.326 192.002 133.139C187.318 136.446 177.856 137.311 171.913 132.21C165.613 126.805 164.206 117.392 168.88 110.485C169.537 109.515 170.824 108.834 170.636 107.367L170.606 107.397H170.601ZM197.348 119.495C197.87 111.773 190.719 104.652 182.957 104.538C174.439 104.413 167.518 111.37 167.582 119.664C167.652 128.018 174.489 134.716 182.833 134.601C190.789 134.497 197.412 127.6 197.343 119.49L197.348 119.495Z" fill="#E9A060"/>
<path d="M180.406 1.93732C183.36 20.3703 181.013 38.9276 181.709 57.4103C181.838 60.8662 181.45 60.9159 178.129 61.1446C170.337 61.6866 162.833 63.4121 155.971 67.2906C154.296 68.2403 153.485 68.0514 152.496 66.316C146.026 54.9489 139.433 43.6514 132.889 32.3241C130.915 28.908 129.06 25.4174 127.002 22.051C124.893 18.61 125.724 13.9508 129.662 11.932C136.947 8.20761 144.664 5.61695 152.55 3.50365C159.074 1.75831 165.752 0.947796 172.425 0.0626948C175.101 -0.290351 177.383 0.942824 179.854 1.39035L179.844 1.41024C179.854 1.75831 180.028 1.93235 180.376 1.93732L180.406 1.92737V1.93732Z" fill="#D72A26"/>
<path d="M288.331 64.136C288.49 64.2951 288.654 64.4542 288.813 64.6183C290.648 69.004 292.662 73.3251 294.278 77.7854C297.903 87.7851 300.708 97.9986 301.354 108.694C301.429 109.923 301.831 111.161 301.717 112.359C301.379 115.919 298.281 118.614 294.621 118.619C277.516 118.639 260.416 118.644 243.31 118.634C240.655 118.634 240.516 118.197 240.58 115.631C240.635 113.528 240.163 111.399 239.83 109.301C238.905 103.473 237.12 97.919 234.211 92.7775C233.256 91.0918 233.768 90.4056 235.29 89.5404C245.155 83.9066 254.956 78.1534 264.801 72.4898C269.65 69.7002 274.602 67.0797 279.415 64.2354C282.001 62.7039 284.477 62.5448 287.123 63.8774C287.476 64.0564 287.923 64.0515 288.326 64.136H288.331Z" fill="#F1D502"/>
<path d="M62.9938 108.669C63.0137 108.336 63.0336 108.003 63.0535 107.674C62.8397 106.531 64.1574 105.427 63.153 104.258C65.0375 97.5455 65.8132 90.5741 68.0509 83.9358C70.0796 77.9241 72.2029 71.9571 75.1665 66.3333C76.8869 63.0614 81.2528 61.9326 84.5595 63.842C94.8376 69.7792 105.096 75.7511 115.379 81.6833C120.575 84.6817 125.901 87.4663 130.883 90.8327C128.834 95.8399 126.378 100.698 125.125 105.999C124.295 109.509 123.932 113.104 123.777 116.699C123.708 118.261 123.116 118.743 121.744 118.718C121.222 118.718 120.699 118.718 120.177 118.718C113.594 118.718 107.01 118.718 100.427 118.718C96.926 118.718 93.4254 118.718 89.9198 118.718C89.1192 118.718 88.3237 118.718 87.5231 118.718C83.1722 118.693 78.8163 118.698 74.4654 118.634C71.6907 118.589 68.8763 119.017 66.1812 117.962C63.516 115.417 62.7253 112.229 62.9938 108.679V108.669Z" fill="#AC2577"/>
<path d="M285.9 176.208C285.592 176.402 285.408 176.859 284.915 176.67C284.229 174.711 282.355 175.855 281.082 175.263C273.747 171.872 267.144 167.237 260.138 163.294C252.256 158.859 244.444 154.314 236.598 149.824C233.321 147.944 233.003 147.576 235.017 144.344C238.164 139.292 238.821 133.544 240.213 127.99C240.675 126.14 240.829 124.25 240.73 122.346C240.65 120.834 241.168 120.059 242.838 120.064C260.356 120.098 277.874 120.059 295.392 120.113C298.605 120.123 301.22 123.077 301.349 126.344C301.628 133.589 299.883 140.545 298.371 147.536C296.71 155.199 293.926 162.484 290.848 169.664C289.863 171.956 288.55 174.025 286.303 175.343C286.079 175.477 286.029 175.909 285.9 176.203V176.208Z" fill="#BFD61A"/>
<path d="M253.661 22.8659C253.705 23.925 254.506 24.3477 255.232 24.9195C263.551 31.4534 271.064 38.7878 277.499 47.2012C278.349 48.3101 279.269 49.3742 280.055 50.5278C284.077 56.4301 283.212 60.1396 277.066 63.685C269.234 68.2049 261.423 72.7548 253.606 77.2897C247.783 80.671 241.97 84.0721 236.133 87.4236C232.99 89.2286 232.741 89.1441 230.569 86.3595C228.798 84.092 227.088 81.7699 225.233 79.572C222.011 75.7631 217.963 72.9089 213.866 70.1393C212.802 69.4232 212.27 68.911 213.15 67.4243C217.585 59.9208 221.882 52.3278 226.148 44.7249C230.37 37.2015 235.054 29.9417 238.927 22.2145C240.583 18.9078 245.943 17.9481 249.081 20.2156C250.508 21.2498 251.637 22.8808 253.681 22.8709L253.666 22.8559L253.661 22.8659Z" fill="#E5B62D"/>
<path d="M281.598 178.149C283.587 182.206 282.209 185.602 279.544 188.77C278.654 189.829 277.679 190.858 277.416 192.305C274.209 195.811 271.061 199.376 267.779 202.812C261.633 209.242 254.881 214.955 247.357 219.723C245.741 220.748 242.335 219.927 240.411 218.162C239.809 217.61 239.307 216.949 238.76 216.342C238.665 215.865 238.685 215.328 238.457 214.925C235.622 209.928 232.778 204.94 229.889 199.978C224.439 190.615 218.969 181.266 213.475 171.928C212.371 170.053 212.948 168.93 214.758 167.99C216.12 167.284 217.527 166.528 218.189 164.977C222.47 162.734 225.314 158.975 228.253 155.33C229.436 153.863 230.436 152.252 231.565 150.74C232.216 149.87 232.718 149.258 234.131 150.079C249.411 158.99 264.761 167.786 280.086 176.617C280.723 176.985 281.384 177.353 281.608 178.149H281.598Z" fill="#33AA37"/>
<path d="M81.8995 56.4413C81.9492 52.9258 84.5697 50.7379 86.2653 48.0876C89.93 42.3642 94.9025 37.7498 99.6413 33.0011C104.569 28.0634 110.093 23.7224 115.976 19.9135C118.442 18.3173 122.763 18.8494 124.722 21.7185C129.088 28.1131 132.534 35.0348 136.532 41.6432C140.828 48.7439 144.811 56.0336 149.003 63.2039C149.829 64.6161 150.281 66.2222 151.43 67.4753C152.2 68.3106 152.096 69.1012 151.012 69.9118C148.382 71.8858 145.686 73.7605 143.205 75.9682C139.431 79.3197 136.174 83.0441 133.469 87.2657C132.549 88.7028 131.729 89.1602 130.108 88.2055C123.947 84.5806 117.721 81.07 111.526 77.5047C103.346 72.7958 95.171 68.0769 86.9913 63.373C84.2813 61.8116 81.7105 60.1657 81.8995 56.4413Z" fill="#DB305F"/>
<path d="M186.241 1.31059C189.311 -0.404118 192.516 0.771351 195.659 0.914631C202.448 1.22671 208.93 3.22577 215.412 4.95531C222.152 6.75401 228.674 9.36782 234.914 12.5577C237.529 13.8955 239.229 17.9037 237.724 21.035C234.369 28.0132 230.097 34.4583 226.373 41.2248C222.372 48.4958 218.05 55.5899 213.937 62.8053C213.126 64.2262 211.962 65.4212 211.451 67.0424C211.113 68.1276 210.376 68.4325 209.132 67.899C206.107 66.608 203.136 65.2113 199.983 64.1663C195.194 62.5736 190.34 61.6152 185.331 61.3833C183.627 61.3052 182.82 60.8234 182.837 58.9422C182.896 51.7942 182.823 44.6475 182.813 37.4992C182.801 28.0609 182.8 18.6219 182.784 9.18605C182.781 6.05844 182.921 3.00914 186.241 1.31059Z" fill="#DB305F"/>
<path d="M123.133 119.89C124.421 121.899 123.784 124.226 124.073 126.379C124.973 133.157 126.867 139.586 129.93 145.658C130.821 147.418 130.487 148.258 128.856 149.163C123.67 152.037 118.543 155.011 113.412 157.979C104.432 163.171 95.4662 168.382 86.5008 173.598C83.4029 175.398 80.32 176.835 76.9238 174.224C76.0536 173.553 75.3376 172.817 74.8553 171.823C69.3905 160.54 65.6214 148.745 64.1097 136.264C63.7716 133.49 63.4683 130.71 63.1451 127.931C62.7572 124.549 64.2291 122.227 67.2026 120.73C67.6203 120.517 67.9485 120.119 68.3164 119.811C86.5903 119.84 104.869 119.87 123.143 119.9L123.133 119.89Z" fill="#612E7B"/>
<path d="M193.171 176.611C198.646 176.268 203.499 173.996 208.337 171.704C211.082 170.401 211.092 170.525 212.569 173.19C216.686 180.594 220.942 187.919 225.174 195.253C229.162 202.165 233.184 209.052 237.182 215.954C237.436 216.386 237.65 216.824 238.162 217.008C239.097 220.026 239.151 222.905 236.844 225.416C236.471 225.551 236.267 225.814 236.228 226.212L236.203 226.202C230.897 228.45 225.641 230.826 220.176 232.686C210.848 235.859 201.246 237.803 191.445 238.648C186.07 239.111 183.146 236.167 183.136 230.777C183.112 214.099 183.136 197.426 183.052 180.749C183.042 179.028 183.489 177.994 185.13 177.526C187.835 177.457 190.531 177.283 193.166 176.616L193.171 176.611Z" fill="#047337"/>
<path d="M181.211 177.672C181.281 178.656 181.41 179.646 181.41 180.63C181.415 197.238 181.41 213.851 181.4 230.459C181.395 236.362 178.745 239.126 172.932 238.624C160.784 237.575 148.994 234.85 137.692 230.191C135.176 229.152 132.64 228.132 130.203 226.924C125.489 224.582 124.574 220.992 127.095 216.531C134.122 204.11 141.337 191.803 148.487 179.452C149.929 176.955 151.466 174.509 152.823 171.968C153.509 170.685 154.171 170.675 155.359 171.267C158.74 172.948 162.042 174.872 165.906 175.315C166.229 175.404 166.552 175.489 166.875 175.578C167.745 176.314 168.775 176.488 169.869 176.409C170.346 176.473 170.828 176.538 171.306 176.602C171.475 176.622 171.644 176.642 171.813 176.667C174.871 177.691 178.068 177.408 181.206 177.681L181.211 177.672Z" fill="#035A9E"/>
<path d="M146.079 164.551C146.328 166.436 148.088 166.834 149.307 167.679C152.121 169.628 152.201 169.579 150.53 172.463C142.141 186.967 133.748 201.467 125.324 215.947C122.982 219.975 118.935 220.88 114.962 218.224C109.954 214.878 105.245 211.099 100.86 206.996C94.4254 200.975 88.7766 194.222 83.6898 187.017C80.5422 182.562 81.3378 178.564 86.1114 175.789C99.1641 168.201 112.262 160.693 125.334 153.149C126.906 152.244 128.487 151.344 130.008 150.36C131.46 149.42 132.35 149.838 133.226 151.225C135.796 155.288 138.82 158.987 142.395 162.229C143.315 163.06 144.19 163.95 145.547 163.984C145.721 164.173 145.9 164.367 146.079 164.556V164.551Z" fill="#22327F"/>
<defs>
<linearGradient id="paint0_linear_2357_522" x1="166.228" y1="112.589" x2="166.228" y2="400" gradientUnits="userSpaceOnUse">
<stop stop-color="#AEBFFF"/>
<stop offset="1" stop-color="#FFE7E3"/>
</linearGradient>
</defs>
</svg>
